Coordinates
version=1
nRows=12
nColumns=24
inDegrees=yes

Units are S.I. units (second, meters, Newtons, ...)
Angles are in degrees.

endheader
time	pelvis_tilt	pelvis_list	pelvis_rotation	pelvis_tx	pelvis_ty	pelvis_tz	hip_flexion_r	hip_adduction_r	hip_rotation_r	knee_angle_r	ankle_angle_r	subtalar_angle_r	mtp_angle_r	hip_flexion_l	hip_adduction_l	hip_rotation_l	knee_angle_l	ankle_angle_l	subtalar_angle_l	mtp_angle_l	lumbar_extension	lumbar_bending	lumbar_rotation
      0.47800000	     -1.96900196	      5.41754616	     -3.92012513	     -0.79786014	      0.99187148	      0.28234329	     23.25756459	     -4.07470291	      1.23332513	     -0.24796552	      1.07857557	     -3.30601819	      8.73811344	    -14.45570446	     10.46596482	      9.06352261	     -2.52915559	      8.69118258	    -12.35803577	      0.28451808	    -12.44472202	      2.50682142	     -6.57624442
      0.48216667	     -2.00320442	      5.33256987	     -3.97809852	     -0.79229477	      0.99121789	      0.28283248	     23.36773983	     -3.89771573	      1.48801368	     -0.66764295	      0.82780034	     -3.32150641	      8.75049339	    -14.53779120	     10.40403973	      8.91330176	     -3.00058519	      8.84688180	    -12.20820387	      0.31057378	    -12.42883008	      2.58886217	     -6.43470805
      0.48633333	     -2.04143352	      5.24986787	     -4.02925201	     -0.78670651	      0.99059634	      0.28331240	     23.51026718	     -3.72557992	      1.68954687	     -1.20971136	      0.55312188	     -3.34575359	      8.78353551	    -14.57434238	     10.34466991	      8.68043947	     -3.55734444	      9.06665344	    -11.88297437	      0.37661837	    -12.38585936	      2.67471786	     -6.30881943
      0.49050000	     -2.05982795	      5.14846370	     -4.08341543	     -0.78109768	      0.99004355	      0.28380239	     23.62421530	     -3.53568638	      1.90868770	     -1.79790083	      0.24729418	     -3.40019724	      8.83410753	    -14.60123006	     10.27095894	      8.43327159	     -4.17677844	      9.27155915	    -11.58107333	      0.48011932	    -12.37826748	      2.78531494	     -6.19467618
      0.49466667	     -2.08180599	      5.04350679	     -4.13467600	     -0.77545785	      0.98952971	      0.28429522	     23.74406888	     -3.34324718	      2.12428355	     -2.44477171	     -0.08668200	     -3.49128171	      8.89695517	    -14.60390889	     10.19461720	      8.18857135	     -4.84297456	      9.44598524	    -11.30249409	      0.61908457	    -12.36053916	      2.90556102	     -6.08661714
      0.49883333	     -2.10780971	      4.91949481	     -4.19483534	     -0.76978469	      0.98903599	      0.28480048	     23.86640903	     -3.12797779	      2.35120013	     -3.13584496	     -0.43017272	     -3.59793141	      8.96169231	    -14.57722735	     10.10389803	      7.93682529	     -5.56308775	      9.61182211	    -11.06312090	      0.77180786	    -12.34507791	      3.04518786	     -5.97510308
      0.50300000	     -2.14101820	      4.80322885	     -4.24130413	     -0.76408147	      0.98857398	      0.28529912	     24.00845074	     -2.92401249	      2.53515326	     -3.89346840	     -0.81353341	     -3.77278374	      9.04177109	    -14.51119896	     10.01614280	      7.65032823	     -6.34136411	      9.76107792	    -10.73568271	      0.98265279	    -12.30493608	      3.17458160	     -5.86733402
      0.50716667	     -2.13641446	      4.66496730	     -4.27998626	     -0.75836170	      0.98820614	      0.28579653	     24.08637426	     -2.70629747	      2.72292009	     -4.64211061	     -1.18886152	     -3.95518982	      9.17331516	    -14.43617026	      9.90605117	      7.30914086	     -7.22921292	      9.91612703	    -10.36420820	      1.35584992	    -12.33015436	      3.32580685	     -5.77269308
      0.51133333	     -2.18418090	      4.53282232	     -4.34483812	     -0.75259416	      0.98778328	      0.28631919	     24.24689762	     -2.47796305	      2.93032809	     -5.47344059	     -1.53517362	     -4.15652790	      9.23563884	    -14.32454704	      9.81152425	      7.07606276	     -8.06825252	      9.95193261	    -10.23576046	      1.56235932	    -12.27705235	      3.47721585	     -5.67249900
      0.51550000	     -2.22399142	      4.40664631	     -4.39106704	     -0.74682486	      0.98740809	      0.28682335	     24.38742371	     -2.26482280	      3.12451453	     -6.30619140	     -1.87062308	     -4.40302291	      9.29865677	    -14.15193054	      9.71724086	      6.75666455	     -9.05042149	     10.02359855	     -9.98033704	      1.80590392	    -12.22334899	      3.63550866	     -5.56673702
      0.51966667	     -2.21788110	      4.26286980	     -4.41252772	     -0.74101000	      0.98714246	      0.28732025	     24.46788023	     -2.04896169	      3.23935098	     -7.14594001	     -2.27094358	     -4.70458625	      9.41035381	    -14.00340212	      9.58804627	      6.36153356	    -10.08108951	     10.10312866	     -9.45858671	      2.29344175	    -12.22223617	      3.78726010	     -5.46331829
      0.52383333	     -2.20457233	      4.10250486	     -4.46399023	     -0.73518455	      0.98690651	      0.28786288	     24.52626489	     -1.80253033	      3.43189546	     -7.97464622	     -2.59352558	     -5.07758456	     10.40094633	    -13.84103199	      9.45199566	      5.98106352	    -11.14107623	      9.97890274	     -9.28803434	      7.09694238	    -12.24706073	      3.98179050	     -5.39981805
